<mxfile host="Electron" agent="Mozilla/5.0 (Windows NT 10.0; Win64; x64) AppleWebKit/537.36 (KHTML, like Gecko) draw.io/24.7.17 Chrome/128.0.6613.36 Electron/32.0.1 Safari/537.36" version="24.7.17">
  <diagram name="Pagina-1" id="EOOPCCJ3OFN7ebAPbktB">
    <mxGraphModel dx="1098" dy="988" grid="1" gridSize="10" guides="1" tooltips="1" connect="1" arrows="1" fold="1" page="1" pageScale="1" pageWidth="827" pageHeight="1169" math="0" shadow="0">
      <root>
        <mxCell id="0" />
        <mxCell id="1" parent="0" />
        <mxCell id="H3H6x5SUDLPwY8rPFPDT-1" value="" style="shape=image;verticalLabelPosition=bottom;labelBackgroundColor=default;verticalAlign=top;aspect=fixed;imageAspect=0;image=data:image/jpeg,/9j/4AAQSkZJRgABAQAAAQABAAD/2wCEAAkGBxQHEBUTBxMVEhMWFxcaFxcYFRUYGBgYFx0XGB0XGhcYHSggGCAnHhUWIjEhKCkrLy4uGB8zODMtNyktLisBCgoKDg0OGhAQGy0mICUtKzIvLy0tLS0tLy0rLS0tLi0tKy0tLS0tKys1LS0tKy0tNy0vLS8tKzUtLS0tNS0tLf/AABEIAOEA4QMBIgACEQEDEQH/xAAcAAEAAgMBAQEAAAAAAAAAAAAABgcDBAUCAQj/xABAEAACAQIDBQUFBgQEBwEAAAAAAQIDBAURIQYSMUFREyJhcZEHFDKBoSNCUmKxwRUWcoKSotLhJDNTwtHw8SX/xAAaAQEBAAMBAQAAAAAAAAAAAAAAAgEDBAUG/8QAKBEBAAIBBAEDBAIDAAAAAAAAAAECEQMEITESE0FRImFxgQWxIzKR/9oADAMBAAIRAxEAPwC8QAAAAAAAAAAAAAAAAAAAAAAAAAAAAAAAAAAAAAAAAAAAAAAAAAAAAAAAAAAAAAAAAAAAAAAAAAAAAAAAAAAAAAAAAAAAAAAAAAAAAAAAAAAAAAAAAAAAAAAAAAAAAAAAAAAAAAAAAAAAAAAAAAAAAAAAAAAAAAAAAAAMNW6hR0qzin0bWZEPaHtHLDty3saihUnm5NfFGPJeGefHwK/r7efy/Ps68FVkodpKU5uOnKEe696b1eTyXicmvuL1t46dcz/x0128el6lrR+Pdd9O6hUeVOcW+mazMxD7G/hitOMuzeUoqSzXJrNfqZ7TGHhlRQvG3Sk8lJ8YN9Xzj+hybf8AlIvfw1IxLXfS8YylIAPWagAAAAAAAAAAAAAAAA1r7EKWHx3r2pGmuW80s/Jczl4hi869R0MDSnUXx1H8FP8A1S8P/hG8cvLPZp72MTldXT5N5vPy4RXgXFY7sjymeKu7V21t4v7GNap4xp6f5mhS21t5PKtGrT8ZU9P8rZWt5t5c3Tyw6hTox5ZrNnLntldU3/xSpy8HHIr/AB/djGp9l9WV7Tvo71nONSPWLT9ehsFJYJtZTq1E4Z21blJPuvwa5rwZa+AYx/E4tVUo1YpbyXBp8Jx8H9CbVjuJVEz1MOsACFAAAHN2kxL+D2lavFZunTlJLrLln88jpHF21s5X+H3NOgs5SpS3V1aW8l88gKIo3PbVfeL+TlPe3pSfPPj9NCx7jDbDHnCpiNGE5RSyeqzjx3Xk+8teDIDT2PvVRo3FvRdelUgppQ1cc+Uocc/JM3be+q4Y1DFKM6Wesd6Ljp4Z8Tzf5DQteIvSZiY+Pu2aV61zFlo1MQjllQ8lyyOBj1xvrdlr1NG1xntI5UzzUi63xHz0U8Lcsa2vWY8aphsHjXv1J0bh/aUuH5ocn8uHoSkqKzqTwqrGra8Yvhya5xfmWjhWJQxSmqls/Nc4voz6bZbmNWvjnmGmls8S3AAdqwAAAAAAAAAADhYhdTxOo7fDJbsY6Vqq+7+SL/F1fLz4beNXUqUY07P/AJtV5Rf4V96fyX1aINtztLHZ6irPBP8Amy0cuevF59X1LjiMpxNpxDztZtfDAo+5bLpOpwclru/Pm/E19kPZ27x+8bROTctd3PvS8/wr6+Rv+zjYlWsVc4st6pLKUVL13n+y+flYxMzntfERiGtY2FOwju2VONNdIpL16nzEMOpYnBwv6cakXyks/TobQMMKK9oWw/8AL01UsM5W9R5LPVwnx3G+afJ+GT5Z+tgdopUKkYVnnKGsX1j96HzX1SLZ2ysliFhcQn/05Sj4Sgt+L9YooBS90rxqU9MpRfrk8hPTNeZw/S9OaqJOHBpNeTPRy9mK/vFpSl+XL/C3H9jqBgAAAAAeadNUklSSilwSWSXyRGPaNgyxaynKK+0o51IPnp8UfJrP0RKTxWpqtFxnwkmn5PQxaMxhiYzCiMDq72RN8OjHdWib6ld4bnaVZU58YSlF+cW1+xLcMvsk1J6o+Z3ejmXPVJXSjLkvRHmg5Wc9+0e7Ln0a6NczUp3e8ZlXzOCvnp2zWVJXheKxvu7JblRcY9fGL5r9DokD7bdacHk0801xTJdhN+r+Gby3l8S/fyZ9JsN960eF/wDb+2ytst4AHpLAAAAAA17y9p2Md68nGC6yaXp1Ode4pO4m6ODJSmtJ1HrCn/ql4evQiuOYvabPy/4nevbt9e818uEV4JF+OO0+WemXFNp6bnWrW0s0kqVN5Nfmk0nrxaX9pX+ylSliWIdvj08qak8s02m1wTyWi4Z/M0MUxd385za3N6Upbqeib5aHjCrynYdiruOcZ7z9GkY4zyqMxScP0Va3ULuKlaTjOPJxaa+hmK7s8N3Ie87KVWmvihnx8JR5/MlmzeOxxqD3luVYaTh08V1TMzXjMJi3OJdgA81Jqkm6jSSWbb0SS5tkKcvamv2VpUUfiqJ04+c+79E2/kUbtVYfw6ooPi5R+hb/AL0sTnK5ue7bUU+zz033zn+mX+7K2wm2ltvi28l9jCW9J8t1Ph8+Bm0Y4Z0558lvbL27tbOhGfFU4t+cu8/1OofEsuB9MMAAAAAAAAKG2yt3hmKV1wUpb68p979WzD772LUlwej8yWe2fBpfZXlus1FdnU8FnnCXlm2vmiBWVdV4uE+DPL3Oni2XNaMWSuyvt/I69KrmiAULiVjLKpw5P/ySKyxPeSzZ5O405jmHVpUiyQ7xmsr6VjNTpcuK5NdGcq3u1Mz9snnqcUa1qWzHcOmNrnpZVjdxvqanQ4P6PmmbBX+zOMqwqpVH9lUaT6JvRS/ZlgH1my3UbjT8vf3adTTmk4kAB1tYcW+uJ4lUdDD5bsY6Vqq5fkg/xdXy8+GzjFzKCjStNKtVtRf4Yr4p/JP1aIltvjCwKhG0wp7s5RbnPnGHOXjJ5lxxGUzzOGltVtVGwi7TZzKCjpUq8VHPkvxSZ82W9n/vS7XHN6MZa9nm9+fjVktV/Sv9jo7BbIK1jG4xKPf40qb13M/vy6zfHwJ2RM5VxHEKL9qGALBrzesYKFGpTi4qKySlDKEkl/gf9zNLZC4ovJYpTjVpRbjUi1m1CeT34804ySemuWZc+1mAx2ht3TbUakXvU5NZpSSa16xabTXRlEXFrVwC4e7FxnF9+m+K/wBUXykuIwzE+y0MLw/+VrmDs59paV/glnnlnqoyfPTVS5pPPhrvY3R/gd1C5ttIv40ucfvL0180iAWWLPcj/D6u5TlOLnRlrFPNNuOesX5cS1McpK4tYufh9UbtOecfLTqdZ+HXr3cLen2leSjBLPeb0yI1UrS2kzlVzo2UNXnpKplzfReH/qjNvcUaNONXae434081TpZ8FBuK7q8EcbFceutuqitsDg4UOi0zS5yfCKIzFeu1xE276Zdr9o57T1Y2OzUX2We7p95r9EupY+xmzUNmbdU6eTqSydSf4pdF4Ll/uYtjdkaWzFP7Pv1pLvz/AO2PRfqSQhcz7QAAMAAAAAAAAMV3bQvISp3UVOE01KL1TT5FF7Z7GVdlajqWu9UtW9J8XD8s/wBpcy+TxVpRrRcayUotZNNZpp8mnxIvpxeOU2rl+dKFeN3HdqmvUcrB83H9DDjlF4Zd1oRWUY1aiSXJKTyXpkbdjcq8g4y1yPLvpY/DTW00nMNu0xXg4s6VLEdNe8vqiJ3dq6Dzp6C1vpU/iOLV2cTzV6u23lZ4twlM7jT7J918i0dhMcWL26jUlnVpd2XVr7svTTzRStO6U9afzRv7P488EuYVqb0TymusH8S/fzSK2dp0NTPtPb0tba+rp/T+n6BB4pVFWipUnnFpNNc09Uz2fRPAcqzfb3FerLhDKnH+1b0vrLL+0hmE4V/HMTnVvFnCD32nwbTypx8tG/kSvBZ79O5XNV6+fq2vpkaWxUlKdx1zh6d/L9y5j6coifqwlQAIWHG2j2Zt9o4JYjDvL4ake7Uh/TL9uB2TxWqxoRcqzUYxWbb4JICnsU9m1XDK1J0bmNWnKtCO7KGVTLPN6rSWieuhPtsb+OHUIRk9W16IzWtT3ubvL/uUoJ9kpaZR51GuryXyIFQup7e4qlTz92pPN9NyL/WT0+bKn6fymseXPs2sM9l/v8+3xerkpvf3ILvJS1ycpaL0LFwjCKODU9zDqahHnlxk+snxbN5LLgCcLmQABgAAAAAAAAAAAEJ222tucFjJ4daycIyUXWn8Cf8ASnnlyzehGcP9rVeo1CdtCtPhlSc82/BZPMDge0nD3h2IVe3WUKr7SD5NPLe9JNnXwzZBwwedxFZVXPtorLXsordy+azl6GntHj1xVvKN1j9luwgnuUqm6k4vPPPe1bzfHLktCVYH7UaFeE44rTcJp9ynSjKpvQy6Lg1w6cDR6MZn7o9PlWV3VVZd3jy8SfT9kEZxTtbqUG0s1KmpLPpmmiG0sctLPFFXrUJRtN7NUuEoZZZS3c9e8s93Pn4Fr2XtJw+8qKFKs1nwnKLUM+mb4fNE6e3iM+TFdPHaB3fsovbfWzq0Kn904N/Jxa+pF6+FVqNSdG6juV4fFTbWeTWalHlJNdD9JrXgRDb/AGO/mKMauHtU7ql8EnmlOPHck1w8HyZOtta2j6e3VobnV2/OnP6nmEf9mO0dS0pO3xZSUIPuSafdi+Xik8/LQs+MlNZxeafBlKQVzhL/AP2KdSmuDbS9c1nGXmtSc7JY/ToxVOvPuyfcln3Vn93w/TyNG33FqW9PU/TVq6/q6k2mMZbNK6WEYnUo3GkLqKqU2+G/FKE4/SD/ALjRqVXsxe71bPsamkn0Tekvk/pmdrbHZ/8AmC33aEtyvTe/Rn+Ga5Pwa0fryIlhG11O+TstsYOjXh3W5deuf78GerS2OJ6a7194WTTmqqTptNNZprVNdUz0Q20wi6wzXZ+4hUpPVQl3o69OnyaN+NXEa2koW9P83ef0zE0+Jg8/mHcvLuFlBzupKMVzf6Lq/A4cs8W+2xP7G1h3owk8nPLhKp+0Tn4hdW2Cvtdorj3irHhHTJf0wWiINi+PXe3tZUMLjKNL8K00/FN8kMxXrtnE276bG1+09TaysrPZ5Psm93T77+XBL6FjbG7NQ2Zt1Tp5Oo9akusui8FwXrzMOxuyNLZmn3cp1mu/PL/LHovq+ZJCFzPsAAMAAAAAAAAAAAAADFc28bqO7cRUovLNPho019UjxQsaVtOU7enCE5/FJRScvNribAA593gtveylO9owqSlFRbnFS7qz0WfDizh4zsRSuLb3fBHGzjvb0nCPxPJ5JvPNrN9eRLABGtmdirbAoLuRq1vv1pxTlJ+Gfwrokdelg9ClVlWpUacasluymoRUmujeRvAD4llwPoAHxxz46nh0IvjGOnDRGQADg7U7JW+08Ur+LjUiso1YZKcfDNpprwaaO8AKhuPZ3iOEt/wG5jUjyW9KnLLxWsWac9msdu+7XbS6uvDL6PMuoAwqbB/ZNUqyUsfrr+mnrL/FJZL0ZZWD4PRwWn2eGwUI8+sn1k+LZvgAAAAAAAAAAAAAAAAAAAAAAAAAAAAAAAAAAAAAAAAAAAAAAAAAAAAAAAAAAAAAAAAAAAAAAAAAAAAAAAAAAAAAAAAAAAAAAAAAAAAAAAAAAAAAAAAAAAAAAAAAAAAAAAAAAAAAAAAAAAAAAAAAAAAAAAAAAAAAAAAAAAAAAAAAAAAAA//Z;" vertex="1" parent="1">
          <mxGeometry x="230.5" y="600" width="95" height="95" as="geometry" />
        </mxCell>
        <mxCell id="H3H6x5SUDLPwY8rPFPDT-2" value="" style="shape=image;verticalLabelPosition=bottom;labelBackgroundColor=default;verticalAlign=top;aspect=fixed;imageAspect=0;image=data:image/png,iVBORw0KGgoAAAANSUhEUgAAAGAAAABgCAYAAADimHc4AAAACXBIWXMAAAsTAAALEwEAmpwYAAAKZklEQVR4nO2daXAUxxWAJ3ecVI7K4VSSyvEvyW//TuxUwGz3iiMGOc7p3L4SBxPHSZxUVEmVA5pegcQRwMRgDDZIGGODy4ABC3XvroTEIXSCkNAthO773u3Ua7Rid7TS7s707Mwo81W9KpU0O+p5b7r79XuvexXFxcXFxcXFxcXFxcUpbClc/WkSWH6vspQhgeX3+oq8KwjFT6sM7VAZPqsyXKEy1EAY6iMUTRKGp2d/biYUX1MZOiWupWgDYQiBosxom0rx3wjFTypLiayLGR9Ti/BqlaE8oWiKw4RhbkgoCqkUVaoU78z2e3BWVeaHjbaTnF7+cZWhbsLwecXpZPGs9xPmfYAwtI9QNGRY4QlEZaifULzfRz3f41x5n542E4qfiRh3c9GKLypOJKvw/o9CF1YZumm20hfuHbhKZfgx6HnJtjvvHc9HCEXtcwal+PeK44YZhp9VGe6wTPHaXkFRJ7wMuy/e96FE7QeDxX4WM8UpiPGdoiarFU4WFFTno2jNQu3PKrz/g/N6LEWhnKD3y4qd2Vi44uuE4RPWKxgna4iCeC4mofin8a73MfQHxa4Q6llHGB6wXqk4NaGoRy1Ca2OdBVQT71qVoYBiN+5MVni75Ypk+kW4wRQRGHoI9T6y2HW+oge/otiFf19Y81mV4mKrFUhkGYLhc4Ti+sWvQU8pdiDbv+pLsIiyWmnEZHmvYbfWAKes1r3iC2R8U2W4xWrlEJPl9ap/8JnwNM8LrovuJRPZ/lWfsEz54IrZ28XEUsTnz+Ddo00cOF67Mfbv1LPOsjF/IQ9hqUmw5TUeoabrPY0B8H5LvJ2lNOGSRSS/8nkeDofmDDAxPcJz/KuiDIB6CgoyP5BWAzjd1SRJyu7SR/nY1CDXcrjizzHXZfu93073IosvddlR8iPeM9rM4wFDUvS1KkNqOsMLA0tf+T+cm3Tj0T5UqzEArk6LAVSKj1utHGKy7Cp9dFHlA6HwDN9anHnXABSHc4tXfsFU5UPE0GrlEJPlYPkGPjLZx5Phjep/anqBN9PceP4S9/dP1m3hM6EpniyX2t/SGADtMM0AkEyxWkHExMm2rifIU+X2SEOsASiqNEX52nTc0hEvf/uaGtfNTIZQeJpvCay5ez+KQnklnk9KNwCk7axXFpYqr5Zv4K2DVdwoMGdojPqAVOVDQsLSBDqTK7CAaugr5bI4W78z5v4qRc9JNUC2H3/XaqURg7Kt+GH+7o3tCV1LPVTdPhv7/yg+LNUAKsN7rVYg0RG53HfpCX6uYRdv7i8XPrtZgFFNm4hzgpn32G3VmxdcJ+IzL19+ih+qeE744uA+Bppf5ZWdZ8QKdSo0wdMFBOk2B1ZH9QA0CalMaeUk6Vbw9pJHROKDNb0iFNo8cJX3jbXx0amBmIiknfjvxd/EPMOm8/hbcgzAUF46lL730mPc33yAd480cidypPLvmmfyrJRkAHNzvPmVf+VN/Ze53RmfHlr076dvbNU8G/qdYeVDgZKUKuU4su/yk7x9sIY7gZ7RloQGKGktiH1GiohhA4j6fMmKhyySv+mASGw7hau3Tia8prarKOY5VYryjfcAip+W7b009V/hTmJ8eogHmg8mvC5ObuCcYQNAZE+W8nde+AnvGrnJnYa/+QBvGahIeB14aRoDXDbeAxg6I+fNX+tI5Q9P9vKXLv42Kdd3ZLJXOwQ1Ge8BFFXKWJHKjLukk5N1mzlt2p/UtVMz45oegLplGMBw8uV840vcibQMVAiHYXCiK6nrIYkT++yoT4IBcK8R5e8p+1VaQwKymJwZ43vKfs1P1G5K+jPTocnY56doyLABZreC6jZAXU+AO5HjtRtjyhB1GmDSUgOIyYuHudO42H5MtB9Wtqm6qxovaMLSIaj81jvcabQNVotxH7y2ZKsiIvSPt9tnEs7xr9SdY7WKgfFOsVaB9he3HEr58x1D17UGuGmZGwoBNicxNNHNXyz7xdzQCeN5qtzoKdbq4aplCzFIjDiF0akBvvfS47M9d5V4k/VQ2vq6ZhLGpy0LRcDb4ATGpodEVi3S7gutR3TfK044eqtlwbjesVZud/rH22OyWFApYcRr05amSNm4pzccDW+WnWkbrBJpz0h7d5X+jA9P9ui+Hyw2N0dv1rhTI7rMsAFeoJ7P60nI2Nn/r+kqjEmgQ3Wz0TQo5Kxjx38Ugq1bilUpST1ehNnAW3qmfocoRYy0E97aZgn5iaLGvfJD0XMGoDg3VQOAZ2EnOofrRdI/tp1eXn37nIS7h/nu0p/HGoBinzQD+PzeVaka4NZwHbcDofCM8Gy04zMsFKGaTQaQ156ngyLstbQwC2p5rKa5/4pI/GvbBsa43s2k/R+orNa8/YOgM8XK0sRTN/K4VfSOtfKj1Vlx25UbfEhqCUz/eIeImmrG/z2KbFItzoXNDun2hDqH6/nb10js3t0oebHsl+IamZyqy403/HxHugFmy9MbUjFCOtKQ4XCI1/eW8PyKvyzalmM1/xIbq2XSMVTLfVEelRCK6/UeBih9g8ZrV5/lZhDmYTHxnWvYyf9z4ceLtgF6Q2nbUfEpmcCumHjzC5wpp5iFni1KtV3npTzw1My4iC/B3JJI6RE5dPVPpuwFACDPHUf5HXAapGImhKE/pmIAWGVCnF3PG9Y2WC2iqqBIrRuZaP6542KaMwfN24wxZwDPesVsYJsqYbgxFSPAIiWREULhaX5r+Dova3uDH63K4rnBtUnfPyLbin8gKthkj/XRXOumYg0xX/moQbrruRBwJrOeLf/RwxFky+p7SzhtfFlssMgNfD9lhUcEdsFc7jghKhnMpKzt6DyXMyLZFGUo6UTvUQUHy9eLjJNeZZOochfauE+6WxmP0al+/lbtCwu2RWX4mJJuSAB/TZzDbFCRJMU3HXpM5/ANng6geht2wUeHrecL6tvEMr6adgMIIzDPSrP2DpDZkEFB5fNCCXomciP1oFDrDzmCxdo3++wPWaL8u0ZAW5NRJvjjJa354uEgUgq+eU6cyQyUDmEE8DTMnEy1izlwV0HpB8ufmb+4Wkgo2qJYjTiyjKFAosbGK/Moac03XelQrzk+PSzGcTh0Ceo94aw38LYgh3vgynq9DoBfxncRSGHTmWWfghKMxRo8OHE7YTk3cYjAoUw5wQc/o9iJRMdWLhUDqBS1WTbpGjm4Nfq4xwgXWo847c1vyfav+IZiZ+Do4njDEUzCxS2HReUBFLFean8zpfCC9YJqbHVA92LA+EgoClqvNCxL/LYb8xMBXweiMrTJzHUCSYOoDO22jbej/5wJ1Oc4xVM8SBh+WFkKiLCFo465RG/a1tMxHLqw8albKqRcZZaT2BGRT4AvQrPR4X8qRW2QTElbPN8O3Dl13fNEqol+6W+8Hz0ObVH+n/Ex733iTCKKetKg+AGVoVegctm06gWnkhPMvAcySypDm1WKyqHC2LDC4R4UXSEM58D4bnrSfCnhK8z4nI+h5bDRQaV4m0rxu2AYGDrE7k3YQkvRJPx853dgNHxaXAufYd5lcA+rn8PFxcXFxcXFxcXFxUWJ4n99JEWqxma+gwAAAABJRU5ErkJggg==;" vertex="1" parent="1">
          <mxGeometry x="318" y="280" width="96" height="96" as="geometry" />
        </mxCell>
        <mxCell id="H3H6x5SUDLPwY8rPFPDT-3" value="" style="shape=image;verticalLabelPosition=bottom;labelBackgroundColor=default;verticalAlign=top;aspect=fixed;imageAspect=0;image=data:image/png,iVBORw0KGgoAAAANSUhEUgAAAGAAAABgCAYAAADimHc4AAAACXBIWXMAAAsTAAALEwEAmpwYAAAGQUlEQVR4nO2cbYhVRRjH5zzXO3NX1yizNxPM3kiEPvQpKwyqL0JSEaUSIRFJiCK67sz1pS6BEChEEb1RBElompCBiuud2TPnui1BaqWbZm9riRpkppup5bpPnHsX6e5dU9yZM2fvnR88sB/O7t7n/59nZu6cmSHE4/F4PB6Px+PxeDweT1rg4fiMkNNByJaAq7cCroog1G7g6kfg8hgIdQaE6i3/zNUvwGVHINRa4HJZ/HtkUTjWdQrDi/lbWEa0PxJwuQaEPAhC4dBC9oFQOyHfPocUwpzr9NLLE+szwNVzwOXhoYt+wfiOCDXVdarpoxDmAi43WBT+vxXxD7QWn3KdcqoIhHo9GfHPR2+mtf1B13mng9ZttwFX5xI2IK6EA/F4QxodEGp58uL3RzwwNzqBUJ+4MiCe0pJGB4T8ckDX0BdwuZKI8KZ4Dh+3UhCyx4oJXJ4mBAPSyABX+6tapZBv1jyTV7NsVQFZuHUMaWSAy+4qQfLFKTUPFcIRIOQpKwbEldbIgDcgXQYEQr4xyDMzrXVBvgJk90UHYa5OeAMSqgBIOHwFcG+AU8Ab4A0gHneVNHAMwIh2Y8TwAnEWNT2EmkqM2DzsIKMNfPT6AJIxoDo0PYyaPuYu60Y3IIpNYOdQs7mk0QFXBpw3gU5zl31rx2hoVU8HQq4Gob7u363Q63J+D0kaUOmODmEbGZWs8C1towKuXgKhTroWElwbUA76QnLi58NbgatvXAsI6TLgCHYRmoD4xZtByN9ciwepM6DcFVmeFRXCHHC5x7VwkFYDIvq+Vf3jLYKuRQOTBiyR1xk24KA99edvYcDVUdeigbGQpwa+E8aI/jo0AxiiHFVlqjEyrcWH3YumrO2KwC2EoWZ9QzbA1neCgKt3XYsGJiOvZlUZsD07ecjiVwxYZsWAehp8QcjPSKEAVQZoutSMAWyDefUXdjYBl2fdC6dMxM+kRU2oEh9JgJp9ZcSAiO0zb0C+OKVOWn4XWaxuGZgeRtkZhsSP40/j+gOX84a58D2BUCsGO6SBIWnGiP5g0AA0vi4UHw8aZoKfindAB1xuhNb2uSS//arB8ip3PRFbZ1T8OErN15g1QMhNCYh2JBDytfLe/Za2iaSw3uq6Sn+/v8q4+HGETeONfljgcoc14bk6Aby4iMzZkSUJgZ2kCSO2xor4NioAuNxnSfxdZKm8kSQIluijQ19yuEh0kiajHxqE+sm0+IGQMn6ZQyyCSAA7msZhKXdvvF6PEdtrVfhKHDeeCAj5reGWv58sCK8cVLQuQrGUnYkRXY2a7UfNehIQzWTssWCA2mlQ/L8J3zZpUPEj9my8opgCES8/NPvIuAEBl5uNdT1cvVoj/A4yEjXb6Fw8IwZQbsOAd4y1/iWlqhkChiSHmirnwpmKkD1k3AAQcoGZ1i83D/zbqNnLzkUz1vpZH3YSC8eeRPE+IxWQl89Xia9yE8pb/lwLZyzo98QKhbDZxIHqjFAPVBmg6YvuRTNaAavsGGDoy9jA2Q9q2uZcNKORvcuaAYFQH5rfhcD21lHr30hsArw427wBtLtOxO/BEr3dqgGkpe3aob4Vq1MDelHT6WQ43O1QdwZo1pOY+GWEmuoNYJVWH9EPjK/7XwqBkJ82YAX80b8w+DFqugCjkTcQZywOr7/cu92MGRCyBj9cF++SqBzE8AY4g6vJIOQXvgJcUihARrQ/Hgi5rnyZ6kWulfFdUMpA14Nwo48l6A3wBpBGBn0F1KkBmvWhZivjPh6Lo6+uvOxnx/0YkJQBEa25+gx19klvQFIGhE131/yv9SSDETvpZ0GJVEDunhoDQjICNfvLG1BlANttZwygb9cakJ1V81xH0zjSyKCmWy0Owq9gxCZi2DwWNZuDmp2oee5zcgVpZDCiy+10QZc0UB8ljQ6G9I7yfTsuDNC0zXX+qQA1W+umAnKzXeeeCrCTjMGIHkjYgF24gyR2Iif1YCl7Z/kSvGTE3+PkXW7awXifqM2dcpXvACviY6muc001qOk0jNhmjNgZA6IfQ802YciewZAMeiLH838nGUu5+8u7EDR9r//C1H2o2e8YsdOVDVHsWHn80KwLI1qKL0yq3PmQnYGaToqPol7o73s8Ho/H4/F4PB6Px+MhDvgXenkKeBIN+EIAAAAASUVORK5CYII=;" vertex="1" parent="1">
          <mxGeometry x="310" y="440" width="96" height="96" as="geometry" />
        </mxCell>
        <mxCell id="H3H6x5SUDLPwY8rPFPDT-4" value="" style="shape=image;verticalLabelPosition=bottom;labelBackgroundColor=default;verticalAlign=top;aspect=fixed;imageAspect=0;image=data:image/png,iVBORw0KGgoAAAANSUhEUgAAAOEAAADhCAMAAAAJbSJIAAAAgVBMVEX///8BAQEAAAD6+vr29vbk5OSHh4fq6ur5+fnv7++dnZ3CwsLy8vLR0dHX19c7Ozu6urp3d3fIyMiqqqpERESZmZmBgYGQkJAmJiZNTU1bW1tsbGxUVFStra1PT0/FxcVkZGQfHx8QEBAsLCw2NjZ6enonJydxcXEYGBgvLy84ODgNhQvbAAAMhUlEQVR4nO1d6VrqyhJ1twQ0zLOIKKConPd/wEvIUKs73Zmr4vfdrD/n7Aidqh5q7uLhoUOHDh06dOjQoUOHDh06dOjQoUOHDh06dOjQoSoGw9ls5rVNhYHRcvd5Pn1dhvWH8l/UHadtr/5gTWH0oxL49YYaBmP8uyH476EZ8upjHBEVErarM/VrGikY66cxGmvhgFQFdD1XHso3h/oTLC50qm50nZ8qDjVODfUXNuqjSdWNrveKY/1LD6WqzlZz6KeoutHVrzTU3jbUtmF6S+MpvYTBzE8qDJXao+FQjZNcElsLVTe6ThWG+rQPVVP91IZt3qvRdXCM1PIiOsi60VVaK4KYUaBg/6kPDsIL48tBVnlhc9BHAhviyEF4UUzQmPn+xplXj+WGorlSO6/XI7FTx4KojwuRtQn+PQcWl6VGAo5+zQflRmoWRMU1fDAllr9KjXShJYv8k9fkyaphqkvgg8hahE9w25by8GiuXqInySK2uU3nxs560BaxjMJY0NeSPfmbjN6ecUo0JLbVAQRGiZH6FrmySZ69Nkp1CXi0tcbxsxHIwBLSNJGkapo8G9JIjZJdAr6NhB0tYnHjtKfSu+E2WRVGahZ7y8TfvPSErlnhkcb0pQU9pUPQlm2a2FlqTg+B2OJmzZK+BFv7mIy/b5DqEhhYdTJ5xMh38tcnr2c5nqQN0SlJ/BZ1bpz4QlhYt9bDKaHrDT/d+/BfP6N43PfrejjCP9pXa9a24bYkAlC57y0zP1i+q8Sejv5v5dO3ztYTN2lb1IAOwwXxUzM/m+p+R/RXpa6RKof9jiFleNyOzn+1H5MZzfzq6XbyfAt7xOT65kf2wBDC3QA6ZC3MW4idVTzA3rqxsP9xsZcw+faGLph2PM8tC1N6v2b8jzQvMZO/1EfIvr3jpWW7TdnfbwmgFkbshEWY2udQDMShHnt/qcGhpmDgpLdjmRKHG+35tAaHupGwb5fDR5d5dnRxqACOT+gR7ssf5fBiJT9g663vH2azg79ZOZg0tMLmz+xSnUNLJuPGz+96Agbp43hjY9IIOvX/KIepQP+NlbnF7ApMHfOTusP1Vzn0DbqVujgM5+GvwaPS6wD+KodLpfM3zQi6bY2k70L7a9sc/ufQFjOlMZgdz9VTahTvuYM4bMdBJH180Z4PgWb1mxc1fXxHq821hv81THsxkLb61J6/AsVF7Mm9MwuTZBRbskshuLLy1+ttf/Ozf317v4KnYIljWIDZjut8099u177vL5crGqmdmgw4b8pmrqjCOfh5zkhtBdsmpjYzYAigLLzmDdVO+snLJqvUzvrKGauBerkKWGRSVSptAQGLv8ThOouoJElWEKnKKn20dnZplqer1KDkaLbKIxquapVVLSwzGVzkD2BglzneOH+ApuE5t1Ug5qtEcI8ZYasWot4jGzWRGtv51crtZiu3+1+pyqoOnk4pQu6R+v5hXGeyR7Oti0vM4EnA1F9BiH49LllCY8fjZGkNchhxOGa8K5O/bVnZmYnefcOaLF7yv9gU9DiFUmeGxIm3NXlUJZLKNaFpZ76S+ntOR2ex0Y3ixrNRT9/I6bPiqW+weM3/ThN41xjk3TmDlR7lEMmyzbRcEfvlHV/fMQL7FAu71YvAxR0tVlXOY6mGH1xBkasCz2hd8MtTD6MUQvfLemeY1c/8z9fDDzAoVoCN0pt7EQewhMXDMLWBO+eb91UUFVP/eN+kA26PVXA9SwBy9HIm1B0UjeOty4BamXJl3LUB1UPlr3KUwK6tJcQ4DmeB1BNMJN9b7IACqSPfWyirVDAj0SR+JGZ3QxzKX0aC0ly+SsVPmdPuAJUks+Vp4Ci0UYUlUBQ9acWeSUAVu2xhN9CGbeQRxnRGuMIKoJLayAUNiMNR/qcr4SIhzdyAMjMut21eh8OnyXLzurue1flr97pZTipsNMslpIZxzOXw2bMT7vkrZWK1tg7iB1cWLtY/EYdc2hhqI6yTuP69EWe5KLOcpnMR9ydX31Srg1PEv+2+jb2iv0nsMn20QcBfEADXw2Gjfmat/kX7dGL4KlsFDb+g+8nyLJLbo+oXd+o6t1YfS1LILLSERkf8NiNImpTdBKEUSBJNzgVq9c906LQyf1MlCFyhMW9uI7C4O3Hg9HYz9mKg4Hm8XFr9SmoWZ/z6kFJOKbt0oZMcPpxj5PGG6X67XB6Wy+1eFz1Jox19FPMkQi0ml90PVptpN+m13aGofUP+pr6+syb+FHkMQ9n6Guq3S0CU88VM8b6PcRJ+dA4DQUSuwE3224wQr088RgumBfCNRBN4NmyhfShcMg/JWt+lA63OfuuyXx6pRDg82Rvk0AgjQICBrysP1QiZSfWBNvure1eyiL+sIugHb5p8LtBxWnDb0LnUgYgxCgZmm3nYDxCkui3hY0J4nid5ST4ZrDSl7lKFCVW7NZQClEGl5vGQKIIXL5F7qkBKM27RFhYizFR0z/TF2Noo5priJw2Qdenaj9767ev03/smsDdGcd+8IjnbdfzheyXOIOzflzpqYBRzBr2LptYizZk2LnuLcVpbRxH72NrujT/SNgu2FOEMRkO/sczb9mdlPayP8/vtJ3NuevEiZoyIIoCzxA0uGmT1iosUZ8ruOgWsqHThYnTLJsOxxfQaa5wP74dmnLGtIukIiJVmqt4gGjZDz8GNP+YoGGbx3RGv8GCl8gvfzsxDyID7VsUYBQCX2R3igzjMmPKwtMCcbMzrGJMTqiF3hSV4LuyXSzQPzlXcEjYlSfmp1E/CXIfwfKds7Rjoc/CmgB+0yx/OYsH4WJkyH7JHhpAd2w9uDLxnxJ7W065tud4WraE524lAdLiXzjXEjcOeT9BNbEc0ITqHqVztMlZ85vcO2ecQOWRP6+mFiY4zEYnGdBZ1cb6bZKmvze3CN8Y3cMhetD8qsoaxPrT8adjvz9KnLVpbl4bdSnI4UAVOfWzTFDUgI7/BGUIbCBmld2iSxpmLjdak6M2gU55dCnFM9ruW/UKCO3YPi4UbtrmflqqmCQCVkBkb5jkWmkXC78P4wxm0wyIytxtCHzirhG4T+/j5giG2OTMXnNxD7hrarDgGguI0eZIhjszkXEinYClzITRVsedcRPooGIraqGKrDWEa1jvBWJuY46bFIkmps9tWXiSZmzyhBI4JqwcM6Z9cmQYx76ld4Ayp9Ud+dGkvI02hO2l+wCvp4RUYahtzE2L7FlXg1hZsU07/CXKkBfTABT1zpXabw3Died5keNjs9NxTAYcBGqNW69pfDNRerJCb5msmngH4SyEVl/RqYL0b5I652+FdC+SAv4qJf5FWLoPCkjSBef8sxV/hkeAg8tUrgSgt7MT0smsxnJm3FMicYvQvDpUkds+/Wpi8Fw0tS1RGgUbku8GW5EHL5pk9/y0laY6HkuYXhVv5rssShxXM38mhv7+eAnwe+4cKKcBpSTFXBSTO2uiII9Fofy+idPPfznc1n2axjV/wmVeVAiXwLiDN3KCQOV8HiXbXkJwVvgt6dBLaqNVPaqwYu7dRFdCR7R1uSPTcXQtIMzd+62jjgiAOW+hj2CsREKgM6DMv1KECAGY/n5yDl8hfKYEICl9QGPxDeaNG5j6LEjArXDjTEWFs5XBq7yBCcoZTzEGNp3Q3SuglynlDF067tEaEfAJnkhR+4Un4+tqzEjogZ5m9kga10GYWctC8gbm+zMBJQt8HgG7koipxqES04QPqfNkb61ADzd1AEasE5U7iGN7KraZwm0p1UdKWkL3Np1YxJPULPngK+d+5wkUU+llw+D0oATWMv+3AXs0aAm+UCZhSeINO6MfCsMRF4o1K+H3aj0aKCDdsDyezS2eCkjQA2E9CrZRGUlZ3BJDcR4HXBQDPSSA+hHabVL8v2f5U8Da2NjEpUAMlgYOxld+kwp1xhKIJOiaS0wobRtAFhiAft882EKqCNNCX2zmgfSWzpAs55wIEjYxBEwJ+KZpbmlIiVsp1CgHdf5hNU5pLof7oEWDv8Jr7UD4n+EsFD4IHcSY1lSaepdJesFmEm9KdhTTiSk7zGqDfyGYVNSC0pX/ZZi6j8yH3JNDCXwOEMjhjwiBopOsvDzI+4qYdmy3Ah4y6gOi6dI9WcKA4r5G21nReEwGMChGDz5J2dwBPxvY+0muku9CCY8oa2acLkWKZtQgJh+rK69T48bVkaQ69+MVT7gjf5DdshdQOh0rCpQnbWYlzOLnPq1Q+b9UCh+NgWuVKzRY7cQ5naiqrgifStYkT6Snt0KFDhw4dOnTo0KFDh/8v/A8nKXyfcfqZ4AAAAABJRU5ErkJggg==;" vertex="1" parent="1">
          <mxGeometry x="390.5" y="600" width="95" height="95" as="geometry" />
        </mxCell>
        <mxCell id="H3H6x5SUDLPwY8rPFPDT-5" value="" style="shape=image;verticalLabelPosition=bottom;labelBackgroundColor=default;verticalAlign=top;aspect=fixed;imageAspect=0;image=data:image/png,iVBORw0KGgoAAAANSUhEUgAAAFAAAABQCAYAAACOEfKtAAAACXBIWXMAAAsTAAALEwEAmpwYAAAEJUlEQVR4nO2a/UtTURjH979tGZpaUSJobz8UiYTk2y+KGkJYRPTyS0kgiD+YFogghISBYG3q1Ey3mstS8yXzpalT13T3G89z3XIokd12d87pfOAwz9313MtnzznPOedeh0Oj0Wg0f4zb6YSI5Y3T6ZbiZ0y3KLfsEuM3KwruvfvxHDsW/7vPITKiClx5+jQhUehIFFUgAgE5JIosEDJIFF0gRJcog0CILFEWgRBVokwCIaJE2QRCNIkyCoRIEmUVCFEkyiwQIkiUXSDSLVEFgUinRFUEIl0SVRKIdEgUVaD7HxUt0KkFpoX/NgL/FVqgRbRAiygjMBoKwVdWhv6sLPgqKrhuB8oI/FBdnTSt+PTgAexACYG74TBPain6Nicn+TqDp0/DDpQQGJ6Y4LbfFRVxnURSPRaJINWoITAY/CXQMODJyIDb5YKxu4tUo4TAH8vL3Lb3zBlOHtyFT52CHSghEIaBgexs81WN3l7+HLt2DXaghkAAvvJybn/8+nUzC9+7BztQRuBsS0vSNGbxxQvYgTICw3uZOF4iCwuwA2UEEiMXLvA1Rs6fh10oJTB46xZfg1YldqGMQCMWg/fsWb6G5/hxntrYgTICQ15v0hg49fgx7EAZgZN37nD7gdpaXoXQci66soJUo4TAWCSCwZMnuf2tmRlTIs0F799HqlFC4GJXV9LqY2t6msdB2qGh6U0qkV+gYeDtpUvc9vKrV4nDU42NptTiYhg7O0gV0gtcdbu53eGCgqTdl93NTQwXFvJ3M01NSBXSC/SVlXG788+fH/hufWyMuzGV0OAgUoHUAsN7y7eB3FyOuMP40txsnpOTg4WODsy3t/Ox6SdP+JPq1PV5rDSM/0tgYC/b0nhH7Kyvc5cmOe+rqnhspGSyf374u+LNy2OhRxEprcD18fHEzQdu3MDo5cs8/ztMzFB+Pq+P43Xa8pprbeUdnKlHjzBRX5/0/aeHD9UVGItE8K27O5F595f+zEz4Sks5aaz09WHz8+fEcxHKxCSKz3W5MHn37oHlXmhoKDEkKCcwurrKXZW26uNt0bMPf2UlRxMljFg0+vtGDANzbW0sOv7/H2pqeCz82tmJj7dvm89Wrl5VR2AsGuWI6j9x4kDELfX04G+g1Urw5s1Dx0c69t3jUUPg9twcP2mLd7tAXR2Gz53jOkWeVSiq6UegCKRxjyJ5e3b2SG0IK3BnbS0hizZKN/x+zLe1cZ26cWRxESIgrMBgQ4OZMUtKeI639PKlmWVdLqy+fg1REFbgQG4un0+ZlMbA+PvI88+eQSSEFThy8WLy4J6RwRlUNIQVuOH3Y/TKFfN1tfJyrouIsAJlQQu0iBZoES3QIlqgRbRAi2iBFtECLaIFWkQLtIgWaBEt0CJaoEW0QNkEqlocWqBTbIEajUbjUIefjCNQ+RitnVAAAAAASUVORK5CYII=;" vertex="1" parent="1">
          <mxGeometry x="320.5" y="750" width="90" height="90" as="geometry" />
        </mxCell>
        <mxCell id="H3H6x5SUDLPwY8rPFPDT-7" value="" style="endArrow=classic;startArrow=classic;html=1;rounded=0;exitX=0.5;exitY=0;exitDx=0;exitDy=0;entryX=0.406;entryY=1.031;entryDx=0;entryDy=0;entryPerimeter=0;" edge="1" parent="1" source="H3H6x5SUDLPwY8rPFPDT-3" target="H3H6x5SUDLPwY8rPFPDT-2">
          <mxGeometry width="50" height="50" relative="1" as="geometry">
            <mxPoint x="380" y="426" as="sourcePoint" />
            <mxPoint x="430" y="376" as="targetPoint" />
          </mxGeometry>
        </mxCell>
        <mxCell id="H3H6x5SUDLPwY8rPFPDT-8" value="" style="endArrow=classic;startArrow=classic;html=1;rounded=0;exitX=0.658;exitY=0.011;exitDx=0;exitDy=0;entryX=0.406;entryY=1.031;entryDx=0;entryDy=0;entryPerimeter=0;exitPerimeter=0;" edge="1" parent="1" source="H3H6x5SUDLPwY8rPFPDT-1">
          <mxGeometry width="50" height="50" relative="1" as="geometry">
            <mxPoint x="341" y="597" as="sourcePoint" />
            <mxPoint x="340" y="536" as="targetPoint" />
          </mxGeometry>
        </mxCell>
        <mxCell id="H3H6x5SUDLPwY8rPFPDT-9" value="" style="endArrow=classic;startArrow=classic;html=1;rounded=0;entryX=0.25;entryY=0;entryDx=0;entryDy=0;" edge="1" parent="1" target="H3H6x5SUDLPwY8rPFPDT-4">
          <mxGeometry width="50" height="50" relative="1" as="geometry">
            <mxPoint x="370" y="540" as="sourcePoint" />
            <mxPoint x="377" y="399" as="targetPoint" />
          </mxGeometry>
        </mxCell>
        <mxCell id="H3H6x5SUDLPwY8rPFPDT-10" value="" style="endArrow=classic;startArrow=classic;html=1;rounded=0;exitX=1;exitY=0.5;exitDx=0;exitDy=0;" edge="1" parent="1" source="H3H6x5SUDLPwY8rPFPDT-1" target="H3H6x5SUDLPwY8rPFPDT-4">
          <mxGeometry width="50" height="50" relative="1" as="geometry">
            <mxPoint x="388" y="470" as="sourcePoint" />
            <mxPoint x="387" y="409" as="targetPoint" />
          </mxGeometry>
        </mxCell>
        <mxCell id="H3H6x5SUDLPwY8rPFPDT-11" value="" style="endArrow=classic;startArrow=classic;html=1;rounded=0;exitX=0.417;exitY=-0.033;exitDx=0;exitDy=0;entryX=0.25;entryY=1;entryDx=0;entryDy=0;exitPerimeter=0;" edge="1" parent="1" source="H3H6x5SUDLPwY8rPFPDT-5" target="H3H6x5SUDLPwY8rPFPDT-4">
          <mxGeometry width="50" height="50" relative="1" as="geometry">
            <mxPoint x="398" y="480" as="sourcePoint" />
            <mxPoint x="397" y="419" as="targetPoint" />
          </mxGeometry>
        </mxCell>
        <mxCell id="H3H6x5SUDLPwY8rPFPDT-12" value="Springboot" style="text;html=1;align=center;verticalAlign=middle;whiteSpace=wrap;rounded=0;" vertex="1" parent="1">
          <mxGeometry x="414" y="290" width="60" height="30" as="geometry" />
        </mxCell>
        <mxCell id="H3H6x5SUDLPwY8rPFPDT-13" value="Python" style="text;html=1;align=center;verticalAlign=middle;whiteSpace=wrap;rounded=0;" vertex="1" parent="1">
          <mxGeometry x="414" y="473" width="60" height="30" as="geometry" />
        </mxCell>
        <mxCell id="H3H6x5SUDLPwY8rPFPDT-14" value="Ollama" style="text;html=1;align=center;verticalAlign=middle;whiteSpace=wrap;rounded=0;" vertex="1" parent="1">
          <mxGeometry x="485.5" y="632.5" width="60" height="30" as="geometry" />
        </mxCell>
        <mxCell id="H3H6x5SUDLPwY8rPFPDT-15" value="LangChain" style="text;html=1;align=center;verticalAlign=middle;whiteSpace=wrap;rounded=0;" vertex="1" parent="1">
          <mxGeometry x="150" y="632.5" width="60" height="30" as="geometry" />
        </mxCell>
        <mxCell id="H3H6x5SUDLPwY8rPFPDT-16" value="File pdf" style="text;html=1;align=center;verticalAlign=middle;whiteSpace=wrap;rounded=0;" vertex="1" parent="1">
          <mxGeometry x="414" y="790" width="60" height="30" as="geometry" />
        </mxCell>
      </root>
    </mxGraphModel>
  </diagram>
</mxfile>
